HIERARCHY
ROOT root
{
	OFFSET	0	13.1	24.9
	CHANNELS 6  Xposition Yposition Zposition Xrotation Yrotation Zrotation
	JOINT spine_1
	{
		OFFSET	0	9.99999	0
		CHANNELS 3  Xrotation Yrotation Zrotation
		JOINT spine_2
		{
			OFFSET	0	112	-10
			CHANNELS 3  Xrotation Yrotation Zrotation
			JOINT spine_3
			{
				OFFSET	0	206.5	19.3
				CHANNELS 3  Xrotation Yrotation Zrotation
				JOINT spine_4
				{
					OFFSET	0	110.4	14.6
					CHANNELS 3  Xrotation Yrotation Zrotation
					JOINT neck_1
					{
						OFFSET	0	71.8	-50.3
						CHANNELS 3  Xrotation Yrotation Zrotation
						JOINT neck_2
						{
							OFFSET	0	86.2	-25.8
							CHANNELS 3  Xrotation Yrotation Zrotation
							JOINT head_ee
							{
								OFFSET	0	179.8	-8.7
								CHANNELS 3  Xrotation Yrotation Zrotation
								End Site
								{
									OFFSET	1	0	0
								}
							}
						}
					}
					JOINT left_clavicle
					{
						OFFSET	-43.2	22.4	-70.8
						CHANNELS 3  Xrotation Yrotation Zrotation
						JOINT left_shoulder
						{
							OFFSET	-93.9	-5.79999	48.7
							CHANNELS 3  Xrotation Yrotation Zrotation
							JOINT left_elbow
							{
								OFFSET	-291.4	-30.8	15.2
								CHANNELS 3  Xrotation Yrotation Zrotation
								JOINT left_lowarm_twist
								{
									OFFSET	-110.7	-3.89999	13.6
									CHANNELS 3  Xrotation Yrotation Zrotation
									JOINT left_hand
									{
										OFFSET	-110.7	-3.89999	13.6
										CHANNELS 3  Xrotation Yrotation Zrotation
										JOINT left_ee
										{
											OFFSET	-80.8	-5.10001	12.1
											CHANNELS 3  Xrotation Yrotation Zrotation
											End Site
											{
												OFFSET	1	0	0
											}
										}
									}
								}
							}
						}
					}
					JOINT right_clavicle
					{
						OFFSET	43.2	22.4	-70.8
						CHANNELS 3  Xrotation Yrotation Zrotation
						JOINT right_shoulder
						{
							OFFSET	93.9	-5.79999	48.7
							CHANNELS 3  Xrotation Yrotation Zrotation
							JOINT right_elbow
							{
								OFFSET	291.4	-30.8	15.2
								CHANNELS 3  Xrotation Yrotation Zrotation
								JOINT right_lowarm_twist
								{
									OFFSET	110.7	-3.89999	13.6
									CHANNELS 3  Xrotation Yrotation Zrotation
									JOINT right_hand
									{
										OFFSET	110.7	-3.89999	13.6
										CHANNELS 3  Xrotation Yrotation Zrotation
										JOINT right_ee
										{
											OFFSET	80.8	-5.10001	12.1
											CHANNELS 3  Xrotation Yrotation Zrotation
											End Site
											{
												OFFSET	1	0	0
											}
										}
									}
								}
							}
						}
					}
				}
			}
		}
	}
	JOINT left_hip
	{
		OFFSET	-82.8	-127.5	0.300001
		CHANNELS 3  Xrotation Yrotation Zrotation
		JOINT left_knee
		{
			OFFSET	-28.2	-396.7	2.2
			CHANNELS 3  Xrotation Yrotation Zrotation
			JOINT left_ankle
			{
				OFFSET	-11.7	-411.3	35.4
				CHANNELS 3  Xrotation Yrotation Zrotation
				JOINT left_toes
				{
					OFFSET	0	-60	-88.6
					CHANNELS 3  Xrotation Yrotation Zrotation
					JOINT left_foot_ee
					{
						OFFSET	-22.5	-16.5	-42.2
						CHANNELS 3  Xrotation Yrotation Zrotation
						End Site
						{
							OFFSET	1	0	0
						}
					}
				}
			}
		}
	}
	JOINT right_hip
	{
		OFFSET	82.8	-127.5	0.300001
		CHANNELS 3  Xrotation Yrotation Zrotation
		JOINT right_knee
		{
			OFFSET	28.2	-396.7	2.2
			CHANNELS 3  Xrotation Yrotation Zrotation
			JOINT right_ankle
			{
				OFFSET	11.7	-411.3	35.4
				CHANNELS 3  Xrotation Yrotation Zrotation
				JOINT right_toes
				{
					OFFSET	0	-60	-88.6
					CHANNELS 3  Xrotation Yrotation Zrotation
					JOINT right_foot_ee
					{
						OFFSET	22.5	-16.5	-42.2
						CHANNELS 3  Xrotation Yrotation Zrotation
						End Site
						{
							OFFSET	1	0	0
						}
					}
				}
			}
		}
	}
}
MOTION
Frames: 10
Frame Time: 0.02
1041.4 574.639 -1682.42 -6.22536433501 6.49879486639 9.05284043034 4.45141 0.0205163 -1.59118 4.45281 0.121713 -1.58665 4.44845 0.332874 -1.55612 4.44508 0.0829689 -1.58915 -1.55726 15.1987 -2.91359 -0.93525 29.7219 -1.29842 -0.0 0.0 -0.0 -3.44089 24.23 -1.83983 -32.8545 -32.0261 71.4612 0.782803 -21.1951 0.146465 -8.67236 -0.38503 1.03866 3.34354 7.8255 25.89 -0.0 0.0 -0.0 9.92677 10.7202 -19.6621 -1.44548 25.5874 -66.762 1.75079 40.9311 -0.653436 -4.68125 0.188276 -0.567833 4.03946 20.77 -18.098 0.0 0.0 0.0 28.2289 -23.7271 -18.4552 -20.6393 0.287491 3.13712 37.3534 13.3629 -4.66711 27.0814 -0.0 -0.0 -0.0 0.0 -0.0 5.99256 58.9934 -18.0036 -21.843 -0.269189 -3.32091 40.8225 -12.435 4.97125 15.7563 -0.0 -0.0 0.0 0.0 0.0 
1041.4 574.639 -1682.42 -6.23111541488 6.94588205059 9.10197025005 4.45141 0.0205163 -1.59118 4.45281 0.121713 -1.58665 4.44845 0.332874 -1.55612 4.44508 0.0829689 -1.58915 -1.55726 15.1987 -2.91359 -0.93525 29.7219 -1.29842 -0.0 0.0 -0.0 -3.44089 24.23 -1.83983 -32.8545 -32.0261 71.4612 0.782803 -21.1951 0.146465 -8.67236 -0.38503 1.03866 3.34354 7.8255 25.89 -0.0 0.0 -0.0 9.92677 10.7202 -19.6621 -1.44548 25.5874 -66.762 1.75079 40.9311 -0.653436 -4.68125 0.188276 -0.567833 4.03946 20.77 -18.098 0.0 0.0 0.0 28.2289 -23.7271 -18.4552 -20.6393 0.287491 3.13712 37.3534 13.3629 -4.66711 27.0814 -0.0 -0.0 -0.0 0.0 -0.0 5.99256 58.9934 -18.0036 -21.843 -0.269189 -3.32091 40.8225 -12.435 4.97125 15.7563 -0.0 -0.0 0.0 0.0 0.0 
1041.4 574.639 -1682.42 -6.24018219032 7.59624281305 9.17360716688 4.45141 0.0205163 -1.59118 4.45281 0.121713 -1.58665 4.44845 0.332874 -1.55612 4.44508 0.0829689 -1.58915 -1.55726 15.1987 -2.91359 -0.93525 29.7219 -1.29842 -0.0 0.0 -0.0 -3.44089 24.23 -1.83983 -32.8545 -32.0261 71.4612 0.782803 -21.1951 0.146465 -8.67236 -0.38503 1.03866 3.34354 7.8255 25.89 -0.0 0.0 -0.0 9.92677 10.7202 -19.6621 -1.44548 25.5874 -66.762 1.75079 40.9311 -0.653436 -4.68125 0.188276 -0.567833 4.03946 20.77 -18.098 0.0 0.0 0.0 28.2289 -23.7271 -18.4552 -20.6393 0.287491 3.13712 37.3534 13.3629 -4.66711 27.0814 -0.0 -0.0 -0.0 0.0 -0.0 5.99256 58.9934 -18.0036 -21.843 -0.269189 -3.32091 40.8225 -12.435 4.97125 15.7563 -0.0 -0.0 0.0 0.0 0.0 
1041.4 574.639 -1682.42 -6.24308691504 7.79281622718 9.19530174003 4.45141 0.0205163 -1.59118 4.45281 0.121713 -1.58665 4.44845 0.332874 -1.55612 4.44508 0.0829689 -1.58915 -1.55726 15.1987 -2.91359 -0.93525 29.7219 -1.29842 -0.0 0.0 -0.0 -3.44089 24.23 -1.83983 -32.8545 -32.0261 71.4612 0.782803 -21.1951 0.146465 -8.67236 -0.38503 1.03866 3.34354 7.8255 25.89 -0.0 0.0 -0.0 9.92677 10.7202 -19.6621 -1.44548 25.5874 -66.762 1.75079 40.9311 -0.653436 -4.68125 0.188276 -0.567833 4.03946 20.77 -18.098 0.0 0.0 0.0 28.2289 -23.7271 -18.4552 -20.6393 0.287491 3.13712 37.3534 13.3629 -4.66711 27.0814 -0.0 -0.0 -0.0 0.0 -0.0 5.99256 58.9934 -18.0036 -21.843 -0.269189 -3.32091 40.8225 -12.435 4.97125 15.7563 -0.0 -0.0 0.0 0.0 0.0 
1041.4 574.639 -1682.42 -6.25234603268 8.3877914356 9.26109261038 4.45141 0.0205163 -1.59118 4.45281 0.121713 -1.58665 4.44845 0.332874 -1.55612 4.44508 0.0829689 -1.58915 -1.55726 15.1987 -2.91359 -0.93525 29.7219 -1.29842 -0.0 0.0 -0.0 -3.44089 24.23 -1.83983 -32.8545 -32.0261 71.4612 0.782803 -21.1951 0.146465 -8.67236 -0.38503 1.03866 3.34354 7.8255 25.89 -0.0 0.0 -0.0 9.92677 10.7202 -19.6621 -1.44548 25.5874 -66.762 1.75079 40.9311 -0.653436 -4.68125 0.188276 -0.567833 4.03946 20.77 -18.098 0.0 0.0 0.0 28.2289 -23.7271 -18.4552 -20.6393 0.287491 3.13712 37.3534 13.3629 -4.66711 27.0814 -0.0 -0.0 -0.0 0.0 -0.0 5.99256 58.9934 -18.0036 -21.843 -0.269189 -3.32091 40.8225 -12.435 4.97125 15.7563 -0.0 -0.0 0.0 0.0 0.0 
1041.4 574.639 -1682.42 -6.26192411048 8.96039403124 9.32460108712 4.45141 0.0205163 -1.59118 4.45281 0.121713 -1.58665 4.44845 0.332874 -1.55612 4.44508 0.0829689 -1.58915 -1.55726 15.1987 -2.91359 -0.93525 29.7219 -1.29842 -0.0 0.0 -0.0 -3.44089 24.23 -1.83983 -32.8545 -32.0261 71.4612 0.782803 -21.1951 0.146465 -8.67236 -0.38503 1.03866 3.34354 7.8255 25.89 -0.0 0.0 -0.0 9.92677 10.7202 -19.6621 -1.44548 25.5874 -66.762 1.75079 40.9311 -0.653436 -4.68125 0.188276 -0.567833 4.03946 20.77 -18.098 0.0 0.0 0.0 28.2289 -23.7271 -18.4552 -20.6393 0.287491 3.13712 37.3534 13.3629 -4.66711 27.0814 -0.0 -0.0 -0.0 0.0 -0.0 5.99256 58.9934 -18.0036 -21.843 -0.269189 -3.32091 40.8225 -12.435 4.97125 15.7563 -0.0 -0.0 0.0 0.0 0.0 
1026.05760201 573.415 -1700.30644246 -6.73220520163 8.89886741391 10.1920036772 4.46563 -0.085545 -1.89545 4.46762 0.0352184 -1.89705 4.46504 0.288129 -1.87538 4.46014 -0.0116125 -1.89734 1.54174 15.4866 -3.86053 2.58141 30.5397 -3.14293 -0.0 0.0 -0.0 -3.24222 24.5755 -1.49959 -31.3935 -28.4563 72.3292 0.826068 -22.2547 0.162481 -9.61297 -0.436153 1.14757 2.14008 10.3042 18.292 -0.0 0.0 -0.0 10.1019 10.1708 -20.0546 -2.87387 25.4281 -66.9651 1.53351 37.2198 -0.516407 -5.92509 0.246062 -0.716 4.28712 20.5006 -19.9606 0.0 0.0 0.0 27.0676 -24.3354 -19.6208 -19.7086 0.298992 2.99477 35.6743 14.7276 -4.52162 26.2815 -0.0 -0.0 -0.0 0.0 -0.0 8.07416 59.7185 -19.832 -23.8349 -0.230432 -3.6241 40.2326 -14.46 4.94549 17.106 -0.0 -0.0 0.0 0.0 0.0 
1008.22934908 577.917 -1716.59694131 -6.78676899916 8.74270741268 10.2199102545 4.5441 -0.175276 -1.94295 4.54619 -0.0513094 -1.95016 4.54641 0.206667 -1.93986 4.54117 -0.102232 -1.94816 0.538583 15.4808 -3.05964 1.40092 30.035 -1.98202 -0.0 0.0 -0.0 -3.58625 24.5564 -1.96618 -29.3483 -26.539 73.4813 0.952086 -25.2498 0.213256 -9.98024 -0.4566 1.18987 1.86685 12.1342 17.0824 -0.0 0.0 -0.0 10.1619 8.2143 -20.1988 -5.61739 24.7563 -66.7828 1.39718 34.686 -0.436344 -6.23365 0.260895 -0.752562 3.99476 18.8232 -18.8372 0.0 0.0 0.0 25.1455 -25.6175 -18.942 -18.8679 0.307392 2.86606 31.5679 17.7283 -4.13975 23.8099 -0.0 -0.0 -0.0 0.0 -0.0 10.5304 59.4945 -21.158 -28.3731 -0.102933 -4.30871 39.5734 -14.545 4.88756 17.9518 -0.0 -0.0 0.0 0.0 0.0 
987.670089418 584.288 -1736.21653529 -6.09697653914 9.41672666032 10.4490393977 4.4085 -0.277194 -2.15105 4.41106 -0.139789 -2.16432 4.41456 0.152184 -2.16348 4.40808 -0.191326 -2.16037 0.191568 15.1254 -2.85602 0.967799 29.2896 -1.69115 -0.0 0.0 -0.0 -2.62428 24.6013 -0.665923 -28.0143 -27.2857 71.6604 1.00275 -26.4147 0.235335 -9.40622 -0.424762 1.1237 2.09221 10.8866 18.1679 -0.0 0.0 -0.0 9.45927 7.34702 -18.6817 -9.33947 24.8509 -66.5169 1.35631 33.8944 -0.413315 -8.15738 0.357801 -0.97868 5.1485 24.7412 -23.447 0.0 0.0 0.0 24.1926 -23.1493 -17.8074 -19.558 0.300636 2.97172 29.7532 19.0967 -3.96152 23.6114 -0.0 -0.0 -0.0 0.0 -0.0 11.2535 58.6418 -21.6761 -29.8388 -0.0502092 -4.52746 41.1327 -16.3451 5.05545 18.2289 -0.0 -0.0 0.0 0.0 0.0 
945.995261882 594.895 -1773.67820974 -4.64334013088 10.4337019681 10.4499773733 4.22952 -0.677757 -2.61438 4.23317 -0.510084 -2.65218 4.25442 -0.142034 -2.69701 4.24472 -0.566045 -2.64081 -1.11056 14.9601 -0.464212 -0.61484 27.2889 1.20707 -0.0 0.0 -0.0 -2.04507 23.2832 -0.114713 -25.6285 -29.694 70.2269 1.11382 -28.8871 0.286892 -10.1377 -0.465453 1.20797 1.5755 12.4434 15.2616 -0.0 0.0 -0.0 8.85723 8.53086 -17.3805 -14.6689 23.3913 -64.8659 1.0095 26.568 -0.238345 -9.45374 0.427373 -1.12919 5.14208 23.1343 -24.4069 0.0 0.0 0.0 18.7203 -21.0438 -16.6652 -18.3951 0.311286 2.79362 27.7438 21.8075 -3.77757 23.2628 -0.0 -0.0 -0.0 0.0 -0.0 13.7378 50.6671 -22.4148 -38.9178 0.399359 -5.8462 40.0613 -17.3368 4.9779 19.5137 -0.0 -0.0 0.0 0.0 0.0 
